<svg height="971" viewBox="-7.23 0 1023.18 400.05" width="2500" xmlns="http://www.w3.org/2000/svg"><path d="m251.9 45.27c-42.76 0-89.76 25.58-98.42 68.72-9.21 46.07 31.8 55.96 58.12 56.26 59.21.72 95.23-34.71 103.51-70.82 7.92-34.68-22.67-54.16-63.21-54.16m-29.17 104.39c-10.19 0-17.54-2.56-21.86-7.6-4.69-5.46-5.88-13.96-3.59-25.22 4.19-20.45 21.94-50.95 53.8-50.95 7.71 0 13.46 2.19 17.08 6.47 4.24 4.95 5.52 12.67 3.68 21.77-10.76 52.83-42.8 55.53-49.11 55.53m386.14-100.43c15.49-2.48 30.14-5.14 58.45-5.14 45.49 0 73.44 15.08 60.38 49.04-5.66 14.66-11.47 30.01-16.43 42.97-6.9 18.09-5.4 25-3.97 31.4 0 0-10.72-3.91-33.01-3.28-19.94.55-28.57 5.66-61.26 5.66-35.37 0-48.31-17.51-46.95-36.03 1.25-16.26 10.28-30.4 30.51-38.46 13.39-5.34 26.75-7.13 40.58-8.22 21.35-1.68 40.37-.76 50.71 0 1.86-6.08 4.51-18.47-25.47-18.66-32.11-.25-54.04 5.36-64.19 8.52l10.66-27.8zm33.17 60.68c-22.36 2.31-30.66 8.11-32.55 18.88-1.51 8.6 4.05 16.63 24.86 15.73 12.15-.54 25.35-3.5 34.64-8.15l10.34-27.05c-15.5-.88-26.03-.54-37.3.59m-87.39-58.64c-21.72 0-22.68-5.95-58.03-5.95-50.75 0-92.47 37.36-98.41 78.59-1.89 12.99 1.77 24.64 9.25 32.79 7.76 8.48 19.48 11.78 33.38 12.4 20.57.9 39.4-3.21 57.43-14.99-10.55 31.32-46.58 37.83-70.75 37.68-11.8-.07-24.72-.57-34.94-5.47l-10.6 26.61c10.6 2.82 26.42 4.67 39.09 4.67 59.31 0 97.45-21.21 113.34-62.94l40.5-106.68s-12.06 3.29-20.27 3.29m-93.23 95.33c-24.69 0-22.44-23.99-13.77-42.71 11.13-23.99 33.59-34.97 47.85-35.5 10.65-.41 19.51 1.21 26.62 7.98-16.76 65.11-50.65 70.23-60.7 70.23m-322.46-13.54c-7.71 3.67-26.38 9.25-41.15 9.25-39.86 0-52.07-24.18-47.83-47.75 6.99-38.85 44.45-68.34 88.89-68.34 13.71 0 26 2.61 36.95 7.13l12.97-25.27c-10.95-4.99-26.46-8.08-40.92-8.08-70.98 0-137.37 40.48-146.78 94.39-8.3 47.61 32.81 74.12 83.28 74.12 13.55 0 28.58-2.14 41.07-5.07zm678.61-88.69 8.9-23.87-44.96 7.73-6.15 16.14h-19.83l-7.16 19.71h19.65l-23.63 58.48c-6.06 14.85-6.38 25.73-.95 33.21 5.27 7.3 15.81 10.88 32.15 10.88 9.15 0 21.55-1.89 31.24-4.44l9.54-23.03v-.03c-5.43 2.23-14.17 4.5-21.3 4.76-5.06.2-8.03-.91-9.87-3.4-2.67-3.51-1.97-10.54 1.86-20.17 0 0 19.52-47.94 22.9-56.26h29.59l7.56-19.71h-29.55zm137.53 95.86c-11.82 5.75-32.27 8.86-45.9 8.86-11.93 0-21.65-3.97-27.4-11.21-5.25-6.57-6.58-15.33-3.95-24.85h97l.47-1.27c7.6-21.12 6.66-39.44-2.71-51.61-8.54-11.14-23.45-16.8-44.04-16.8-45.92 0-84.99 25.59-95.15 62.21-5.11 18.51-2.45 34.74 7.66 46.94 11.15 13.44 30.7 20.84 55.04 20.84 14.06 0 31.01-2.5 46.32-7.11l12.65-26.01zm-32.27-75.45c7.7 0 13.07 1.96 16.05 5.82 3.49 4.57 3.65 12.02.5 21.52h-55.11c4.2-13.07 16.5-27.34 38.57-27.34m75.39-44.28c9.81 0 17.74 7.8 17.74 17.45s-7.93 17.57-18.07 17.57-17.96-7.81-17.96-17.57 7.99-17.45 17.96-17.45zm-.45 4.36c-7.12 0-12.48 5.79-12.48 13.21s5.35 13.1 12.6 13.1c7.39.1 12.79-5.91 12.79-13.21s-5.4-13.09-12.84-13.09h-.07zm-2 21.42h-5.02v-16.14c1.15-.19 3.78-.59 7.09-.59 3.69 0 5.3.5 6.53 1.29 1.01.73 1.74 1.95 1.74 3.57s-1.53 3.05-3.77 3.66v.18c1.8.52 2.85 1.85 3.34 4.17.51 2.34.82 3.26 1.11 3.86h-5.58c-.52-.6-.83-2.01-1.11-3.45-.3-1.63-1.07-2.44-2.7-2.44h-1.64v5.89zm.17-9.23h1.46c1.76 0 2.99-.81 2.99-1.92 0-1.33-1.18-2.04-2.79-2.04-.63 0-1.3.11-1.66.11v3.84zm-620.23-33.64-63.6 164.09h42.2l63.62-164.09zm381.07 220.21c-34.25 38.53-74.41 70.37-119.23 91.91-44.67 21.71-93.57 33.01-142.69 32.97-49.12-.03-97.99-11.39-142.6-33.14-44.75-21.59-84.83-53.44-118.99-91.96l-12.11 31.24c27.61 41.18 65.37 76.31 109.36 101.58 49.38 28.45 106.88 43.83 164.34 43.72 57.46.04 114.92-15.4 164.25-43.89 44.09-25.4 81.89-60.71 109.44-102.07l-11.77-30.35z" fill="#e42313"/></svg>