<?xml version="1.0" encoding="UTF-8" standalone="no"?>
<!-- Created with Inkscape (http://www.inkscape.org/) -->

<svg
   xmlns:dc="http://purl.org/dc/elements/1.1/"
   xmlns:cc="http://creativecommons.org/ns#"
   xmlns:rdf="http://www.w3.org/1999/02/22-rdf-syntax-ns#"
   xmlns:svg="http://www.w3.org/2000/svg"
   xmlns="http://www.w3.org/2000/svg"
   xmlns:xlink="http://www.w3.org/1999/xlink"
   xmlns:sodipodi="http://sodipodi.sourceforge.net/DTD/sodipodi-0.dtd"
   xmlns:inkscape="http://www.inkscape.org/namespaces/inkscape"
   width="988.5"
   height="182.63754"
   id="svg3199"
   version="1.1"
   inkscape:version="0.92.4 (5da689c313, 2019-01-14)"
   sodipodi:docname="Listerine.svg">
  <defs
     id="defs3201">
    <linearGradient
       id="linearGradient84578">
      <stop
         style="stop-color:#ffffff;stop-opacity:1;"
         offset="0"
         id="stop84580" />
      <stop
         style="stop-color:#ffffff;stop-opacity:0;"
         offset="1"
         id="stop84582" />
    </linearGradient>
    <clipPath
       clipPathUnits="userSpaceOnUse"
       id="clipPath3768">
      <path
         inkscape:connector-curvature="0"
         d="M 0,0 H 510.236 V 510.236 H 0 Z"
         id="path3770" />
    </clipPath>
    <clipPath
       clipPathUnits="userSpaceOnUse"
       id="clipPath46750">
      <path
         inkscape:connector-curvature="0"
         d="M 61.92,23.51 H 429.528 V 569.52 H 61.92 Z"
         id="path46752" />
    </clipPath>
    <mask
       maskUnits="userSpaceOnUse"
       x="0"
       y="0"
       width="1"
       height="1"
       id="mask54033">
      <g
         id="g54035">
        <g
           clip-path="url(#clipPath54015)"
           id="g54037">
          <path
             inkscape:connector-curvature="0"
             d="m 159.125,246.095 h 17.318 v -1.094 h -17.318 z"
             style="fill:#373535;fill-opacity:1;fill-rule:nonzero;stroke:none"
             id="path54039" />
          <g
             id="g54041">
            <g
               id="g54043" />
            <g
               id="g54045">
              <g
                 clip-path="url(#clipPath54019)"
                 id="g54047">
                <g
                   id="g54049">
                  <g
                     id="g54051">
                    <g
                       id="g54053">
                      <g
                         id="g54055">
                        <path
                           inkscape:connector-curvature="0"
                           d="m 159.125,245.001 h 17.007 l 0.316,1.098 h -17.323 z"
                           style="fill:url(#linearGradient54027);stroke:none"
                           id="path54057" />
                      </g>
                    </g>
                  </g>
                </g>
              </g>
            </g>
          </g>
        </g>
      </g>
    </mask>
    <clipPath
       clipPathUnits="userSpaceOnUse"
       id="clipPath54015">
      <path
         inkscape:connector-curvature="0"
         d="m 159.125,246.095 h 17.318 v -1.094 h -17.318 z"
         id="path54017" />
    </clipPath>
    <clipPath
       clipPathUnits="userSpaceOnUse"
       id="clipPath54019">
      <path
         inkscape:connector-curvature="0"
         d="m 159.125,246.095 h 17.318 v -1.094 h -17.318 z"
         id="path54021" />
    </clipPath>
    <linearGradient
       x1="0"
       y1="0"
       x2="1"
       y2="0"
       gradientUnits="userSpaceOnUse"
       gradientTransform="matrix(17.322599,0,0,-17.322599,159.125,245.5498)"
       spreadMethod="pad"
       id="linearGradient54027">
      <stop
         style="stop-opacity:1;stop-color:#373535"
         offset="0"
         id="stop54029" />
      <stop
         style="stop-opacity:1;stop-color:#ffffff"
         offset="1"
         id="stop54031" />
    </linearGradient>
    <clipPath
       clipPathUnits="userSpaceOnUse"
       id="clipPath54063">
      <path
         inkscape:connector-curvature="0"
         d="m 159.125,246.095 h 17.318 v -1.094 h -17.318 z"
         id="path54065" />
    </clipPath>
    <linearGradient
       x1="0"
       y1="0"
       x2="1"
       y2="0"
       gradientUnits="userSpaceOnUse"
       gradientTransform="matrix(0,-8.5205107,-8.5205107,0,170.19109,253.52)"
       spreadMethod="pad"
       id="linearGradient53991">
      <stop
         style="stop-opacity:1;stop-color:#c0d7b7"
         offset="0"
         id="stop53993" />
      <stop
         style="stop-opacity:1;stop-color:#009a56"
         offset="1"
         id="stop53995" />
    </linearGradient>
    <linearGradient
       x1="0"
       y1="0"
       x2="1"
       y2="0"
       gradientUnits="userSpaceOnUse"
       gradientTransform="matrix(0,7.3362999,7.3362999,0,170.19048,245.5929)"
       spreadMethod="pad"
       id="linearGradient53971">
      <stop
         style="stop-opacity:1;stop-color:#c0d7b7"
         offset="0"
         id="stop53973" />
      <stop
         style="stop-opacity:1;stop-color:#009a56"
         offset="1"
         id="stop53975" />
    </linearGradient>
    <linearGradient
       inkscape:collect="always"
       xlink:href="#linearGradient84578"
       id="linearGradient84584"
       x1="161.27992"
       y1="245.49638"
       x2="163.38719"
       y2="245.75267"
       gradientUnits="userSpaceOnUse" />
    <linearGradient
       inkscape:collect="always"
       xlink:href="#linearGradient84578"
       id="linearGradient84586"
       x1="161.27992"
       y1="245.49638"
       x2="163.38719"
       y2="245.75267"
       gradientUnits="userSpaceOnUse" />
    <linearGradient
       inkscape:collect="always"
       xlink:href="#linearGradient84578"
       id="linearGradient84590"
       gradientUnits="userSpaceOnUse"
       x1="161.27992"
       y1="245.49638"
       x2="163.38719"
       y2="245.75267" />
    <linearGradient
       inkscape:collect="always"
       xlink:href="#linearGradient84578"
       id="linearGradient84592"
       gradientUnits="userSpaceOnUse"
       x1="161.27992"
       y1="245.49638"
       x2="163.38719"
       y2="245.75267" />
    <linearGradient
       inkscape:collect="always"
       xlink:href="#linearGradient84578"
       id="linearGradient84594"
       gradientUnits="userSpaceOnUse"
       x1="161.27992"
       y1="245.49638"
       x2="163.38719"
       y2="245.75267" />
    <linearGradient
       inkscape:collect="always"
       xlink:href="#linearGradient84578"
       id="linearGradient84596"
       gradientUnits="userSpaceOnUse"
       x1="161.27992"
       y1="245.49638"
       x2="163.38719"
       y2="245.75267" />
    <linearGradient
       inkscape:collect="always"
       xlink:href="#linearGradient84578"
       id="linearGradient84601"
       gradientUnits="userSpaceOnUse"
       x1="161.27992"
       y1="245.49638"
       x2="163.38719"
       y2="245.75267" />
    <linearGradient
       inkscape:collect="always"
       xlink:href="#linearGradient84578"
       id="linearGradient84603"
       gradientUnits="userSpaceOnUse"
       x1="161.27992"
       y1="245.49638"
       x2="163.38719"
       y2="245.75267" />
    <linearGradient
       inkscape:collect="always"
       xlink:href="#linearGradient84578"
       id="linearGradient84605"
       gradientUnits="userSpaceOnUse"
       x1="161.27992"
       y1="245.49638"
       x2="163.38719"
       y2="245.75267" />
    <linearGradient
       inkscape:collect="always"
       xlink:href="#linearGradient84578"
       id="linearGradient84609"
       gradientUnits="userSpaceOnUse"
       x1="161.27992"
       y1="245.49638"
       x2="163.38719"
       y2="245.75267" />
    <linearGradient
       inkscape:collect="always"
       xlink:href="#linearGradient84578"
       id="linearGradient84611"
       gradientUnits="userSpaceOnUse"
       x1="161.27992"
       y1="245.49638"
       x2="163.38719"
       y2="245.75267" />
    <linearGradient
       inkscape:collect="always"
       xlink:href="#linearGradient84578"
       id="linearGradient84616"
       x1="1357.2324"
       y1="-362.27982"
       x2="817.56909"
       y2="-362.27982"
       gradientUnits="userSpaceOnUse" />
    <linearGradient
       inkscape:collect="always"
       xlink:href="#linearGradient84578"
       id="linearGradient84717"
       gradientUnits="userSpaceOnUse"
       x1="161.27992"
       y1="245.49638"
       x2="163.38719"
       y2="245.75267" />
    <clipPath
       clipPathUnits="userSpaceOnUse"
       id="clipPath54973">
      <path
         inkscape:connector-curvature="0"
         d="M 0,534 H 582 V 0 H 0 Z"
         id="path54975" />
    </clipPath>
  </defs>
  <sodipodi:namedview
     id="base"
     pagecolor="#ffffff"
     bordercolor="#666666"
     borderopacity="1.0"
     inkscape:pageopacity="0.0"
     inkscape:pageshadow="2"
     inkscape:zoom="0.79466649"
     inkscape:cx="522.20502"
     inkscape:cy="182.66216"
     inkscape:document-units="px"
     inkscape:current-layer="layer1"
     showgrid="false"
     fit-margin-left="0.5"
     fit-margin-bottom="0.5"
     fit-margin-top="0.5"
     fit-margin-right="0.5"
     inkscape:window-width="1366"
     inkscape:window-height="705"
     inkscape:window-x="-8"
     inkscape:window-y="-8"
     inkscape:window-maximized="1"
     showguides="false">
    <inkscape:grid
       type="xygrid"
       id="grid3885"
       empspacing="5"
       visible="true"
       enabled="true"
       snapvisiblegridlinesonly="true"
       originx="-1926.9052"
       originy="-1218.534"
       spacingx="1"
       spacingy="1" />
  </sodipodi:namedview>
  <metadata
     id="metadata3204">
    <rdf:RDF>
      <cc:Work
         rdf:about="">
        <dc:format>image/svg+xml</dc:format>
        <dc:type
           rdf:resource="http://purl.org/dc/dcmitype/StillImage" />
        <dc:title></dc:title>
      </cc:Work>
    </rdf:RDF>
  </metadata>
  <g
     inkscape:label="Layer 1"
     inkscape:groupmode="layer"
     id="layer1"
     transform="translate(-2121.4787,984.09126)">
    <g
       style="fill:#800000"
       id="g54013"
       transform="matrix(31.247068,0,0,-31.247068,-4154.2102,7310.3877)" />
    <g
       id="g54061"
       style="fill:url(#linearGradient84717);fill-opacity:1"
       transform="matrix(31.247068,0,0,-31.247068,-4154.2102,7310.3877)" />
    <g
       id="g3940"
       transform="matrix(1.024804,0,0,1.0140812,-52.633657,11.290341)">
      <g
         transform="matrix(1,0,0,0.97260901,0,-21.962175)"
         id="g3919">
        <g
           id="g82589"
           transform="matrix(27.596777,0,0,-27.596777,2493.543,-979.7966)"
           style="fill:#000000">
          <path
             d="m 0,0 -3.808,0.001 v -1.449 h 0.986 l -0.003,-4.799 h 1.779 l -10e-4,4.796 1.049,0.002 z"
             style="fill:#000000;fill-opacity:1;fill-rule:nonzero;stroke:none"
             id="path82591"
             inkscape:connector-curvature="0" />
        </g>
        <g
           id="g82597"
           transform="matrix(27.596777,0,0,-27.596777,2211.9124,-979.80477)"
           style="fill:#000000">
          <path
             d="M 0,0 -0.006,-6.244 1.731,-6.247 1.73,0.004 Z"
             style="fill:#000000;fill-opacity:1;fill-rule:nonzero;stroke:none"
             id="path82599"
             inkscape:connector-curvature="0" />
        </g>
        <g
           id="g82605"
           transform="matrix(27.596777,0,0,-27.596777,2809.727,-979.80477)"
           style="fill:#000000">
          <path
             d="m 0,0 -0.003,-6.244 1.608,-0.002 -0.002,2.797 1.369,-2.798 1.96,10e-4 10e-4,6.249 -1.74,-0.002 V -3.112 L 1.66,0.004 Z"
             style="fill:#000000;fill-opacity:1;fill-rule:nonzero;stroke:none"
             id="path82607"
             inkscape:connector-curvature="0" />
        </g>
        <g
           id="g82613"
           transform="matrix(24.220866,0,0,-25.569766,2122.0514,-979.78245)"
           style="fill:#000000">
          <path
             d="M 4.5415009e-5,0 -0.003,-6.738 h 3.4829396 l 0.00102,1.424 H 1.8100371 L 1.8110522,0 Z"
             style="fill:#000000;fill-opacity:1;fill-rule:nonzero;stroke:none;stroke-width:1.0075407"
             id="path82615"
             inkscape:connector-curvature="0" />
        </g>
        <g
           id="g82621"
           transform="matrix(27.596777,0,0,-27.596777,2959.5753,-979.83236)"
           style="fill:#000000">
          <path
             d="M 0,0 -0.001,-6.249 H 3.702 L 3.705,-4.819 1.811,-4.82 1.81,-3.829 3.374,-3.828 3.375,-2.39 1.811,-2.391 1.81,-1.452 3.705,-1.451 v 1.452 z"
             style="fill:#000000;fill-opacity:1;fill-rule:nonzero;stroke:none"
             id="path82623"
             inkscape:connector-curvature="0" />
        </g>
        <g
           id="g82629"
           transform="matrix(27.596777,0,0,-27.596777,2500.2876,-979.83236)"
           style="fill:#000000">
          <path
             d="M 0,0 -0.001,-6.249 H 3.708 L 3.705,-4.819 1.811,-4.82 1.81,-3.829 3.378,-3.826 v 1.435 H 1.811 l -10e-4,0.939 1.895,10e-4 v 1.452 z"
             style="fill:#000000;fill-opacity:1;fill-rule:nonzero;stroke:none"
             id="path82631"
             inkscape:connector-curvature="0" />
        </g>
        <g
           id="g82637"
           transform="matrix(27.596777,0,0,-27.596777,2714.1936,-878.93303)"
           style="fill:#000000">
          <path
             d="m 0,0 c 0.602,0.329 1.008,0.981 1.008,1.716 0,1.055 -0.856,1.941 -1.912,1.941 l -2.889,-0.002 -0.006,-6.247 1.722,-10e-4 v 3.157 c 0,0 1.418,-3.074 1.431,-3.157 H 2.967 L 2.966,3.657 1.244,3.658 1.241,-2.476 Z m -1.389,2.153 c 0.37,0 0.67,-0.311 0.67,-0.68 0,-0.371 -0.293,-0.681 -0.663,-0.681 V 0.791 l -0.695,0.003 -0.003,1.36 0.688,-0.003 z"
             style="fill:#000000;fill-opacity:1;fill-rule:nonzero;stroke:none"
             id="path82639"
             inkscape:connector-curvature="0" />
        </g>
        <g
           id="g82645"
           transform="matrix(27.596777,0,0,-27.596777,2267.4282,-862.76419)"
           style="fill:#000000">
          <path
             d="M 0,0 1.588,0.001 1.586,-0.255 c 0,-0.417 0.393,-0.62 0.662,-0.62 0.406,0 0.648,0.266 0.648,0.62 0,0.502 -0.447,0.567 -0.924,0.73 C 1.329,0.694 0.984,0.894 0.604,1.223 0.235,1.542 0.009,2.016 0.009,2.636 c 0,1.045 1.026,1.814 2.237,1.814 1.17,0 2.228,-0.812 2.217,-1.814 L 4.465,2.38 2.877,2.381 2.885,2.635 C 2.87,2.957 2.593,3.174 2.236,3.174 1.836,3.174 1.67,2.92 1.67,2.629 1.67,2.197 1.984,2.102 2.368,1.992 2.823,1.859 3.415,1.609 3.848,1.327 4.396,0.971 4.626,0.423 4.626,-0.199 c 0,-1.14 -1.097,-2.01 -2.441,-2.01 -1.293,0 -2.192,0.838 -2.192,1.952 z"
             style="fill:#000000;fill-opacity:1;fill-rule:nonzero;stroke:none"
             id="path82647"
             inkscape:connector-curvature="0" />
        </g>
      </g>
      <g
         style="fill:#000000"
         transform="matrix(15.643602,0,0,-16.467793,3078.7142,-959.74944)"
         id="g82653">
        <path
           inkscape:connector-curvature="0"
           id="path82655"
           style="fill:#000000;fill-opacity:1;fill-rule:nonzero;stroke:none"
           d="m 0,0 c -0.12,0.106 -0.156,0.162 -0.302,0.349 l 0.017,0.028 c 0.074,-0.008 0.11,0 0.11,0 0.076,0.009 0.128,0.057 0.124,0.119 -0.003,0.059 -0.055,0.107 -0.124,0.12 -0.036,0.008 -0.037,0.006 -0.123,0.006 V 0.103 c 0,-0.033 -0.002,-0.063 0.023,-0.107 h -0.151 c 0.021,0.044 0.021,0.074 0.021,0.107 v 0.476 c 0,0.034 0,0.066 -0.021,0.11 h 0.146 c 0.061,0 0.19,0.01 0.267,-0.048 C 0,0.634 0.057,0.586 0.057,0.498 0.057,0.399 -0.038,0.318 -0.156,0.311 -0.079,0.208 0.025,0.103 0.191,-0.007 Z m -0.156,0.825 c -0.286,0 -0.517,-0.222 -0.517,-0.499 0,-0.275 0.231,-0.496 0.517,-0.496 0.282,0 0.516,0.221 0.516,0.496 0,0.277 -0.234,0.499 -0.516,0.499 m 0,-1.079 c -0.344,0 -0.621,0.26 -0.621,0.58 0,0.319 0.277,0.579 0.621,0.579 0.339,0 0.616,-0.26 0.616,-0.579 0,-0.32 -0.277,-0.58 -0.616,-0.58" />
      </g>
    </g>
  </g>
</svg>
